<svg xmlns="http://www.w3.org/2000/svg" viewBox="0 0 512 512" width="512" height="512">
  <rect width="512" height="512" rx="64" fill="#0f172a"/>
  <g fill="#ffffff" transform="translate(128, 96) scale(1.5)">
    <!-- Wrench/gear icon representing maintenance -->
    <path d="M85 20c-15 0-29 5-40 14l28 28v22H51L23 56C14 67 9 81 9 96c0 39 32 71 71 71s71-32 71-71-32-71-71-71zm0 114c-24 0-43-19-43-43s19-43 43-43 43 19 43 43-19 43-43 43z"/>
    <!-- Checkmark for task completion -->
    <path d="M75 116l-16-16-10 10 26 26 46-46-10-10z"/>
  </g>
  <text x="256" y="440" text-anchor="middle" font-family="system-ui, -apple-system, sans-serif" font-size="64" font-weight="bold" fill="#ffffff">TaskMaster</text>
</svg>
