<svg xmlns="http://www.w3.org/2000/svg" viewBox="0 0 192 192" width="192" height="192">
  <rect width="192" height="192" rx="24" fill="#0f172a"/>
  <g fill="#ffffff">
    <!-- Wrench icon -->
    <path d="M96 40c-12 0-23 4-32 11l22 22v18H68L46 69c-7 9-11 20-11 32 0 31 25 56 56 56s56-25 56-56c0-31-25-56-56-56zm0 88c-18 0-32-14-32-32s14-32 32-32 32 14 32 32-14 32-32 32z"/>
    <!-- Checkmark -->
    <path d="M88 108l-12-12-8 8 20 20 36-36-8-8z"/>
  </g>
  <text x="96" y="165" text-anchor="middle" font-family="system-ui, sans-serif" font-size="24" font-weight="bold" fill="#ffffff">TM</text>
</svg>
